<?xml version="1.0" encoding="UTF-8"?>
<svg xmlns="http://www.w3.org/2000/svg" onmouseup="{ if(window.parent.document.onmouseup) window.parent.document.onmouseup(arguments[0]);}" viewBox="0 0 38.46 38.46"><title/><g data-name="Layer 2" id="Layer_2"><g data-name="Layer 2" id="Layer_2-2"><path data-cppathid="10000" fill="#fff" d="M35.36,0H3.1A3.1,3.1,0,0,0,0,3.1V35.35a3.11,3.11,0,0,0,3.1,3.11H35.36a3.11,3.11,0,0,0,3.1-3.11V3.1A3.1,3.1,0,0,0,35.36,0Zm1.86,35.35a1.87,1.87,0,0,1-1.86,1.87H3.1a1.87,1.87,0,0,1-1.86-1.87V3.1A1.87,1.87,0,0,1,3.1,1.24H35.36A1.87,1.87,0,0,1,37.22,3.1Z"/><rect data-cppathid="10001" fill="#fff" height="24.81" width="1.24" y="6.82" x="31.01"/><rect data-cppathid="10002" fill="#fff" height="18.61" width="1.24" y="13.03" x="24.81"/><rect data-cppathid="10003" fill="#fff" height="12.4" width="1.24" y="19.23" x="18.61"/><rect data-cppathid="10004" fill="#fff" height="12.4" width="1.24" y="19.23" x="12.41"/><rect data-cppathid="10005" fill="#fff" height="6.2" width="1.24" y="25.43" x="6.2"/></g></g></svg>