<?xml version="1.0" encoding="UTF-8"?>
<svg xmlns="http://www.w3.org/2000/svg" onmouseup="{ if(window.parent.document.onmouseup) window.parent.document.onmouseup(arguments[0]);}" viewBox="0 0 90.69 90.69"><title/><g data-name="Layer 2" id="Layer_2"><g data-name="Layer 2" id="Layer_2-2"><path data-cppathid="10000" fill="#251910" d="M90,52.66c.19-1.14.36-2.29.45-3.46.13-1.32.2-2.61.2-3.86s-.07-2.54-.2-3.86c-.09-1.17-.26-2.32-.45-3.46,0-.08,0-.15,0-.24L90,37.44A45.4,45.4,0,0,0,53.24.73L52.9.67l-.26,0C51.53.46,50.42.29,49.27.2a38.24,38.24,0,0,0-7.86,0C40.27.29,39.16.46,38,.64l-.25,0-.35.06A45.41,45.41,0,0,0,.73,37.43l0,.35c0,.09,0,.16,0,.25C.46,39.16.29,40.31.19,41.48.07,42.8,0,44.09,0,45.34s.07,2.54.19,3.86c.1,1.17.27,2.32.45,3.46,0,.08,0,.15,0,.24l0,.35A45.42,45.42,0,0,0,37.43,90l.36.06A2,2,0,0,1,38,90c1.14.19,2.28.35,3.45.45,1.32.12,2.61.2,3.86.2s2.54-.08,3.87-.2c1.16-.1,2.31-.26,3.45-.45a1.75,1.75,0,0,1,.24,0l.35-.06A45.4,45.4,0,0,0,90,53.24L90,52.9C90,52.81,90,52.74,90,52.66Zm-2.45-3.93c-.07.75-.14,1.52-.26,2.31a.77.77,0,0,1,0,.15h-27a16,16,0,0,0,0-11.7h27a.77.77,0,0,1,0,.15c.12.8.19,1.56.26,2.31.09,1.12.17,2.24.17,3.39S87.68,47.61,87.59,48.73Zm-.75-12.17h-28a16.25,16.25,0,0,0-4.69-4.69v-28A42.55,42.55,0,0,1,86.84,36.56Zm-28.56,11c-.05.28-.1.57-.17.85s-.21.68-.32,1a14,14,0,0,1-1.11,2.48l-.53.9a13.3,13.3,0,0,1-3.32,3.33l-.91.53a14.71,14.71,0,0,1-2.65,1.16c-.26.08-.51.18-.78.24s-.67.15-1,.21a13,13,0,0,1-1.88.19h-.51a13,13,0,0,1-1.89-.19c-.34-.06-.67-.12-1-.21s-.52-.16-.77-.24a14.12,14.12,0,0,1-2.65-1.16l-.91-.53a13.34,13.34,0,0,1-3.33-3.33l-.52-.9a14,14,0,0,1-1.12-2.48c-.11-.34-.23-.67-.31-1s-.13-.57-.18-.85a11.41,11.41,0,0,1,0-4.46c.05-.28.11-.57.18-.85s.2-.68.31-1A14,14,0,0,1,34,38.76l.52-.9a13.51,13.51,0,0,1,3.33-3.33l.91-.53a13.68,13.68,0,0,1,2.64-1.16c.26-.08.52-.18.78-.24s.67-.15,1-.21a13,13,0,0,1,1.89-.19h.51a12.87,12.87,0,0,1,1.88.19c.34.06.67.12,1,.21s.52.16.78.24A14,14,0,0,1,51.92,34l.91.53a13.47,13.47,0,0,1,3.32,3.33l.53.9a14,14,0,0,1,1.11,2.48c.11.34.23.67.32,1s.12.57.17.85a10.93,10.93,0,0,1,0,4.46ZM51,87.33c-.77.11-1.51.19-2.25.26-1.14.09-2.27.17-3.44.17s-2.3-.08-3.44-.17c-.73-.07-1.47-.15-2.25-.26l-.16,0v-27a15.84,15.84,0,0,0,11.7,0v27Zm-11.38-84c.78-.11,1.52-.19,2.25-.26C43,3,44.18,2.92,45.34,2.92s2.3.08,3.44.17c.74.07,1.48.15,2.25.26l.16,0v27a15.84,15.84,0,0,0-11.7,0v-27Zm-3.09.5v28a16.37,16.37,0,0,0-4.69,4.69h-28A42.52,42.52,0,0,1,36.56,3.85ZM29.25,45.34a16,16,0,0,0,1.12,5.85h-27a.77.77,0,0,0,0-.15c-.11-.79-.19-1.56-.25-2.31-.09-1.12-.17-2.24-.17-3.39S3,43.07,3.1,42c.06-.75.14-1.51.25-2.31a.77.77,0,0,0,0-.15h27A16,16,0,0,0,29.25,45.34ZM3.85,54.12h28a16.37,16.37,0,0,0,4.69,4.69v28A42.55,42.55,0,0,1,3.85,54.12ZM54.12,86.84v-28a16.25,16.25,0,0,0,4.69-4.69h28A42.57,42.57,0,0,1,54.12,86.84Z"/></g></g></svg>