<?xml version="1.0" encoding="UTF-8"?>
<svg xmlns="http://www.w3.org/2000/svg" onmouseup="{ if(window.parent.document.onmouseup) window.parent.document.onmouseup(arguments[0]);}" viewBox="0 0 90.69 90.69"><title/><g data-name="Layer 2" id="Layer_2"><g data-name="Layer 2" id="Layer_2-2"><path data-cppathid="10000" fill="#251910" d="M45.34,0A45.35,45.35,0,1,0,90.69,45.35,45.39,45.39,0,0,0,45.34,0Zm0,2.93a42.43,42.43,0,0,1,42.35,41H74l-14,14L30.71,28.65,15.48,43.88H3A42.43,42.43,0,0,1,45.34,2.93Zm0,84.83A42.43,42.43,0,0,1,3,46.81H16.69l14-14L60,62,75.2,46.81H87.69A42.43,42.43,0,0,1,45.34,87.76Z"/></g></g></svg>