<?xml version="1.0" encoding="UTF-8"?>
<svg xmlns="http://www.w3.org/2000/svg" onmouseup="{ if(window.parent.document.onmouseup) window.parent.document.onmouseup(arguments[0]);}" viewBox="0 0 43.09 36.29"><title/><g data-name="Layer 2" id="Layer_2"><g data-name="Layer 2" id="Layer_2-2"><rect data-cppathid="10000" fill="#fff" height="1.4" width="13.96" y="13.96" x="7.68"/><rect data-cppathid="10001" fill="#fff" height="1.4" width="13.96" y="20.93" x="7.68"/><path data-cppathid="10002" fill="#fff" d="M41.86,11.94a4.29,4.29,0,0,0-5.92,0l-6.63,6.64V7.68a.69.69,0,0,0-.21-.5l-7-7A.66.66,0,0,0,21.63,0H.7A.7.7,0,0,0,0,.7V35.59a.7.7,0,0,0,.7.7H28.61a.71.71,0,0,0,.7-.7V30.42L41.86,17.86A4.18,4.18,0,0,0,41.86,11.94ZM22.52,28.5a2.77,2.77,0,0,1,.81-2l5.7-5.7L33,24.77l-5.7,5.7a2.85,2.85,0,0,1-4,0A2.74,2.74,0,0,1,22.52,28.5ZM22.33,2.38,26.93,7h-4.6ZM1.4,34.89V1.4H20.93V7.68a.7.7,0,0,0,.7.69h6.28V20l-5.56,5.57a4.12,4.12,0,0,0-1.23,3,4.18,4.18,0,0,0,.78,2.42l-.76.76,1,1,.77-.77a4.08,4.08,0,0,0,5-.15v3.14Zm39.48-18L34,23.78,30,19.84l6.91-6.91a2.77,2.77,0,0,1,2-.82,2.74,2.74,0,0,1,2,.82A2.79,2.79,0,0,1,40.88,16.88Z"/></g></g></svg>