<?xml version="1.0" encoding="UTF-8"?>
<svg xmlns="http://www.w3.org/2000/svg" onmouseup="{ if(window.parent.document.onmouseup) window.parent.document.onmouseup(arguments[0]);}" viewBox="0 0 32.25 32.25"><title/><g data-name="Layer 2" id="Layer_2"><g data-name="Layer 2" id="Layer_2-2"><path data-cppathid="10000" fill="#fff" d="M31.63,24.81H29.15V19.23a.62.62,0,0,0-.62-.62H16.75v-5h8.68a.62.62,0,0,0,.62-.62V.62A.62.62,0,0,0,25.43,0H6.82A.62.62,0,0,0,6.2.62V13a.62.62,0,0,0,.62.62h8.69v5H3.72a.62.62,0,0,0-.62.62v5.58H.62a.62.62,0,0,0-.62.62v6.2a.62.62,0,0,0,.62.62h6.2a.61.61,0,0,0,.62-.62v-6.2a.62.62,0,0,0-.62-.62H4.34v-5H15.51v5H13a.63.63,0,0,0-.63.62v6.2a.62.62,0,0,0,.63.62h6.2a.62.62,0,0,0,.62-.62v-6.2a.62.62,0,0,0-.62-.62H16.75v-5H27.91v5H25.43a.62.62,0,0,0-.62.62v6.2a.62.62,0,0,0,.62.62h6.2a.61.61,0,0,0,.62-.62v-6.2A.62.62,0,0,0,31.63,24.81ZM7.44,1.24H24.81V12.41H7.44ZM6.2,31h-5v-5h5Zm12.41,0h-5v-5h5ZM31,31h-5v-5h5Z"/></g></g></svg>