<?xml version="1.0" encoding="UTF-8"?>
<svg xmlns="http://www.w3.org/2000/svg" onmouseup="{ if(window.parent.document.onmouseup) window.parent.document.onmouseup(arguments[0]);}" viewBox="0 0 37.82 42.63"><title/><g data-name="Layer 2" id="Layer_2"><g data-name="Layer 2" id="Layer_2-2"><path data-cppathid="10000" fill="#251910" d="M10.43,3.92V5.3a6.21,6.21,0,0,1,6.2,6.21H18A7.6,7.6,0,0,0,10.43,3.92Z"/><path data-cppathid="10001" fill="#251910" d="M20.56,11.55h1.38A11.56,11.56,0,0,0,10.38,0V1.38A10.17,10.17,0,0,1,20.56,11.55Z"/><path data-cppathid="10002" fill="#251910" d="M28.47,25.7,23.6,30.58,12.05,19l4.88-4.88L7.58,4.81,2.22,10.17a7.59,7.59,0,0,0,0,10.73l19.5,19.51a7.59,7.59,0,0,0,10.73,0L37.82,35Zm3,13.73a6.2,6.2,0,0,1-8.78,0L3.19,19.93a6.23,6.23,0,0,1,0-8.78L7.58,6.76,15,14.15,10.1,19l13.5,13.5,4.87-4.88L35.87,35Z"/></g></g></svg>