<?xml version="1.0" encoding="UTF-8"?>
<svg xmlns="http://www.w3.org/2000/svg" onmouseup="{ if(window.parent.document.onmouseup) window.parent.document.onmouseup(arguments[0]);}" viewBox="0 0 40.52 40.52"><title/><g data-name="Layer 2" id="Layer_2"><g data-name="Layer 2" id="Layer_2-2"><path data-cppathid="10000" fill="#251910" d="M20.26,0A20.26,20.26,0,1,0,40.52,20.26,20.28,20.28,0,0,0,20.26,0ZM39.18,19.61H30.7a25.9,25.9,0,0,0-2.23-10,20.32,20.32,0,0,0,4.86-3.07A18.87,18.87,0,0,1,39.18,19.61ZM20.91,2a21.59,21.59,0,0,1,5.78,7,18.58,18.58,0,0,1-5.78,1.11Zm1.42-.53a18.94,18.94,0,0,1,10,4.27A19.1,19.1,0,0,1,27.9,8.46,23.16,23.16,0,0,0,22.33,1.42ZM19.61,2v8.12A18.58,18.58,0,0,1,13.83,9,21.59,21.59,0,0,1,19.61,2Zm-7,6.51A19.31,19.31,0,0,1,8.16,5.69a18.91,18.91,0,0,1,10-4.27A23,23,0,0,0,12.62,8.46Zm7,2.92v8.23H11.13a24.34,24.34,0,0,1,2.13-9.47A19.79,19.79,0,0,0,19.61,11.38Zm0,9.53v8.73a20,20,0,0,0-6.15,1.17,24.44,24.44,0,0,1-2.33-9.9Zm0,10v7.62A21.54,21.54,0,0,1,14.06,32,18.66,18.66,0,0,1,19.61,31ZM18.2,39.1a18.93,18.93,0,0,1-9.73-4,19.05,19.05,0,0,1,4.37-2.62A22.86,22.86,0,0,0,18.2,39.1Zm2.71-.53V31a18.66,18.66,0,0,1,5.55,1A21.54,21.54,0,0,1,20.91,38.57Zm6.77-6.11a19.05,19.05,0,0,1,4.37,2.62,18.93,18.93,0,0,1-9.72,4A23,23,0,0,0,27.68,32.46Zm-6.77-2.82V20.91h8.48a24.44,24.44,0,0,1-2.33,9.9A20,20,0,0,0,20.91,29.64Zm0-10V11.38a19.79,19.79,0,0,0,6.35-1.24,24.34,24.34,0,0,1,2.13,9.47ZM7.18,6.57a20.58,20.58,0,0,0,4.87,3.07,25.9,25.9,0,0,0-2.23,10H1.34A18.94,18.94,0,0,1,7.18,6.57ZM1.34,20.91H9.82A25.8,25.8,0,0,0,12.24,31.3a20.5,20.5,0,0,0-4.77,2.9A18.83,18.83,0,0,1,1.34,20.91ZM33.05,34.2a20.35,20.35,0,0,0-4.78-2.9A25.65,25.65,0,0,0,30.7,20.91h8.48A18.83,18.83,0,0,1,33.05,34.2Z"/></g></g></svg>