<?xml version="1.0" encoding="UTF-8"?>
<svg xmlns="http://www.w3.org/2000/svg" onmouseup="{ if(window.parent.document.onmouseup) window.parent.document.onmouseup(arguments[0]);}" viewBox="0 0 90.69 90.69"><title/><g data-name="Layer 2" id="Layer_2"><g data-name="Layer 2" id="Layer_2-2"><path data-cppathid="10000" fill="#251910" d="M45.34,0A45.35,45.35,0,1,0,90.69,45.35,45.39,45.39,0,0,0,45.34,0ZM66,22.65A30.54,30.54,0,0,0,46.81,14.7V3A42.17,42.17,0,0,1,74.24,14.38Zm-20.63-5.1a27.8,27.8,0,1,1-27.79,27.8A27.83,27.83,0,0,1,45.34,17.55ZM24.72,68A30.54,30.54,0,0,0,43.88,76v11.7A42.19,42.19,0,0,1,16.44,76.31ZM46.81,76A30.54,30.54,0,0,0,66,68l8.27,8.27A42.17,42.17,0,0,1,46.81,87.69ZM68,66a30.53,30.53,0,0,0,0-41.25l8.27-8.27a42.16,42.16,0,0,1,0,57.79ZM43.88,3V14.7A30.64,30.64,0,0,0,22.65,66l-8.28,8.27A42.32,42.32,0,0,1,43.88,3Z"/></g></g></svg>