<?xml version="1.0" encoding="UTF-8"?>
<svg xmlns="http://www.w3.org/2000/svg" onmouseup="{ if(window.parent.document.onmouseup) window.parent.document.onmouseup(arguments[0]);}" viewBox="0 0 90.69 90.69"><title/><g data-name="Layer 2" id="Layer_2"><g data-name="Layer 2" id="Layer_2-2"><path data-cppathid="10000" fill="#251910" d="M45.35,0A45.35,45.35,0,1,0,90.69,45.35,45.4,45.4,0,0,0,45.35,0ZM87.69,43.88h-19a57.62,57.62,0,0,0-5-22.3,45.59,45.59,0,0,0,10.9-6.87A42.24,42.24,0,0,1,87.69,43.88ZM46.81,4.36A48.43,48.43,0,0,1,59.73,20.05a42.26,42.26,0,0,1-12.92,2.5ZM50,3.19a42.2,42.2,0,0,1,22.46,9.54,43,43,0,0,1-10,6.21A51.38,51.38,0,0,0,50,3.19ZM43.88,4.36V22.55A42.26,42.26,0,0,1,31,20.05,48.43,48.43,0,0,1,43.88,4.36ZM28.24,18.94a43,43,0,0,1-10-6.21A42.2,42.2,0,0,1,40.72,3.19,51.53,51.53,0,0,0,28.24,18.94Zm15.64,6.53V43.88h-19A55.23,55.23,0,0,1,29.67,22.7,44.78,44.78,0,0,0,43.88,25.47Zm0,21.34V66.34A44.92,44.92,0,0,0,30.12,69,54.8,54.8,0,0,1,24.9,46.81Zm0,22.45V86.33A48.18,48.18,0,0,1,31.47,71.58,42.45,42.45,0,0,1,43.88,69.26ZM40.72,87.5A42.14,42.14,0,0,1,19,78.5a42.58,42.58,0,0,1,9.77-5.84A51.25,51.25,0,0,0,40.72,87.5Zm6.09-1.17V69.26a42.39,42.39,0,0,1,12.41,2.32A48.18,48.18,0,0,1,46.81,86.33ZM62,72.66a42.52,42.52,0,0,1,9.76,5.84A42.11,42.11,0,0,1,50,87.5,51.25,51.25,0,0,0,62,72.66ZM46.81,66.34V46.81h19A54.63,54.63,0,0,1,60.57,69,44.92,44.92,0,0,0,46.81,66.34Zm0-22.46V25.47A44.66,44.66,0,0,0,61,22.7a54.68,54.68,0,0,1,4.77,21.18ZM16.08,14.71A45.59,45.59,0,0,0,27,21.58a57.44,57.44,0,0,0-5,22.3H3A42.24,42.24,0,0,1,16.08,14.71ZM3,46.81H22A57.65,57.65,0,0,0,27.4,70a45.88,45.88,0,0,0-10.69,6.51A42.24,42.24,0,0,1,3,46.81ZM74,76.55A45.47,45.47,0,0,0,63.28,70a57.49,57.49,0,0,0,5.43-23.23h19A42.21,42.21,0,0,1,74,76.55Z"/></g></g></svg>